<?xml version="1.0" encoding="UTF-8"?>
<svg id="Layer_1" xmlns="http://www.w3.org/2000/svg" version="1.1" viewBox="0 0 572.06 627.3">
  <!-- Generator: Adobe Illustrator 29.6.1, SVG Export Plug-In . SVG Version: 2.1.1 Build 9)  -->
  <defs>
    <style>
      .st0 {
        fill: #006536;
      }

      .st1 {
        fill: #f58220;
      }

      .st2 {
        fill: #218a3d;
      }

      .st3 {
        fill: #a6ce39;
      }
    </style>
  </defs>
  <path class="st0" d="M357.79,551.02h-44.6c-.91-1.65-1.83-3.35-2.74-5-7.83-14.04-16.65-27.48-26.48-40.21-8.22-10.69-17.13-20.91-26.69-30.61-.57-.57-1.13-1.13-1.7-1.7-17.26-17.26-36.13-32.39-56.43-45.3-15.26-9.7-31.35-18.13-48.13-25.22-14-5.91-28.3-10.83-42.87-14.74-12.78-3.39-25.69-6.04-38.82-7.91-1.43-.17-2.91-.39-4.35-.57-12.17-1.52-24.52-2.39-36.91-2.52-1-.09-2.04-.09-3.04-.09v-39.95c13.48.09,26.82.87,39.95,2.35h.13c52.56,6,101.73,23,145.21,48.69,19.69,11.61,38.17,25.04,55.3,39.95,6.3,5.52,12.43,11.26,18.35,17.17,9.43,9.48,18.35,19.39,26.74,29.82,9.56,11.91,18.39,24.43,26.43,37.48,6.78,11,13.04,22.35,18.61,34.08.57,1.09,1.09,2.22,1.61,3.35.13.3.3.61.43.91Z"/>
  <path class="st3" d="M260.84,551.02h-49.47c-5-6-10.26-11.83-15.87-17.43-45.6-45.6-106.08-70.95-170.46-71.43v-39.95c98.69.7,185.46,51.78,235.81,128.82Z"/>
  <path class="st1" d="M151.89,551.02H25.03v-46.56c48.21.48,92.38,17.87,126.86,46.56Z"/>
  <path class="st2" d="M547.03,337.21v39.95h-3.26c-12.48.04-24.78.74-37,2.17-1.39.17-2.74.3-4.13.52-14.48,1.83-28.78,4.61-42.78,8.39-14.56,3.91-28.91,8.83-42.91,14.74-16.82,7.09-32.87,15.52-48.13,25.22-20.3,12.91-39.21,28.04-56.47,45.3-.57.57-1.13,1.13-1.65,1.7-8.39-10.43-17.3-20.35-26.74-29.82,5.91-5.91,12.09-11.65,18.39-17.17,17.09-14.96,35.56-28.3,55.26-39.95,44.56-26.3,95.08-43.56,149.12-49.08h.04c12.56-1.3,25.3-1.96,38.21-1.96h2.04Z"/>
  <path class="st3" d="M547.01,422.19v39.95c-.68-.01-1.35-.01-2.02-.01-62.19,0-120.82,23.12-166.11,65.26-5.98-12.33-12.61-24.3-19.85-35.85,49.82-43.21,114.84-69.36,185.96-69.36.68,0,1.36,0,2.02.01Z"/>
  <path class="st1" d="M547.03,504.46v46.56h-130.86c34.87-29.08,79.82-46.56,128.82-46.56h2.04Z"/>
  <path class="st2" d="M546.81,337.21h-1.83c-12.91,0-25.65.65-38.21,1.96h-.04c.04-.65.04-1.3.04-1.96,0-121.77-99.08-220.85-220.85-220.85s-220.85,99.08-220.85,220.85c0,.78,0,1.57.04,2.35h-.13c-13.13-1.48-26.48-2.26-39.95-2.35,0-144.12,116.77-260.93,260.89-260.93s260.89,116.82,260.89,260.93Z"/>
  <g>
    <path class="st2" d="M308.87,225.48c0,22.9-9.25,43.64-24.19,58.67-14.96-15.03-24.21-35.77-24.21-58.67s9.25-43.64,24.21-58.69c14.94,15.05,24.19,35.8,24.19,58.69Z"/>
    <g>
      <path class="st3" d="M296.06,346.5c-.02-.14-.03-.29-.04-.44-1.61-13.63.71-26.91,6.14-38.63,2.79-6.06,6.44-11.69,10.77-16.74,10.24-11.95,24.46-20.63,41.13-23.79,4.2-.79,8.36-1.16,12.47-1.22-24.03,5.92-42.5,23.54-50.36,45.55,8.08,1.36,16.55,1.31,25.06-.31,23.72-4.48,42.5-20.17,51.94-40.53.87-1.93,1.71-3.9,2.41-5.95,1.05-2.89,1.89-5.85,2.58-8.89.91-4.3,1.48-8.73,1.59-13.2-3.44,1.21-7.02,2.19-10.76,2.9-6.12,1.16-12.21,1.5-18.17,1.08-1.34-.07-2.64-.18-3.89-.35-5.98-.4-12.12-.06-18.27,1.1-11.16,2.11-21.24,6.71-29.74,13.09-13.79,10.34-23.49,25.4-27.21,42.29-1.98,9.19-2.22,18.91-.37,28.72.99,5.21,2.55,10.22,4.57,14.95.04.13.1.25.15.37Z"/>
      <path class="st2" d="M282.82,406.2c.06-.21.09-.43.12-.65,4.33-20.06,2.75-40.15-3.67-58.37-3.3-9.41-7.93-18.3-13.67-26.43-13.56-19.23-33.5-34.16-57.86-41.22-6.14-1.76-12.28-2.91-18.4-3.58,34.94,12.2,59.93,41.04,68.52,74.92-12.22.89-24.83-.39-37.26-4-34.67-10.02-60.41-36.02-71.59-67.67-1.02-2.99-1.99-6.05-2.75-9.19-1.15-4.45-1.99-8.98-2.58-13.6-.75-6.53-.96-13.21-.5-19.88,4.95,2.28,10.14,4.25,15.6,5.84,8.95,2.6,17.96,3.95,26.9,4.18,2,.09,3.96.1,5.84.02,8.96.24,18.05,1.63,27.04,4.22,16.31,4.72,30.66,12.99,42.42,23.68,19.06,17.34,31.37,41.12,34.53,66.79,1.65,13.96.63,28.46-3.5,42.81-2.21,7.61-5.25,14.86-8.91,21.6-.08.19-.18.36-.28.53Z"/>
    </g>
  </g>
</svg>