<?xml version="1.0" encoding="UTF-8"?>
<svg id="Layer_1" xmlns="http://www.w3.org/2000/svg" version="1.1" viewBox="0 0 572.06 627.3">
  <!-- Generator: Adobe Illustrator 29.6.1, SVG Export Plug-In . SVG Version: 2.1.1 Build 9)  -->
  <defs>
    <style>
      .st0 {
        fill: #006536;
      }

      .st1 {
        fill: #f58220;
      }

      .st2 {
        fill: #218a3d;
      }

      .st3 {
        fill: #a6ce39;
      }
    </style>
  </defs>
  <g>
    <g>
      <path class="st0" d="M104.72,558.97h0c0,12.24-9.92,22.16-22.15,22.16h-11.54c-24.61,0-45.39-20.14-45.21-44.75.09-12.14,5.04-23.12,13.02-31.1,8.04-8.04,19.14-13.01,31.41-13.01h35.27c0,8.15-6.61,14.76-14.76,14.76h-20.48c-16.38,0-29.66,13.28-29.66,29.66h0c0,16.39,13.28,29.66,29.66,29.66h12.01c3.9,0,7.31-2.92,7.61-6.81.17-2.26-.68-4.34-2.14-5.8-1.34-1.33-3.19-2.16-5.22-2.16h-7.35c-8.16,0-14.77-6.61-14.77-14.77h22.15c12.23,0,22.15,9.92,22.15,22.15Z"/>
      <path class="st3" d="M357.47,581.01h0s-12.36,0-12.36,0c-12.87,0-23.31-10.44-23.31-23.31v-35.99c0-6.57,5.32-11.89,11.89-11.89h0v47.41c0,6.58,5.33,11.91,11.91,11.91h0c6.55,0,11.86,5.31,11.86,11.86Z"/>
      <rect class="st3" x="363.49" y="520.84" width="11.89" height="11.86" rx="5.93" ry="5.93"/>
      <path class="st3" d="M375.38,533.18v35.57c0,6.57-5.32,11.89-11.89,11.89h0v-35.57c0-6.57,5.32-11.89,11.89-11.89h0Z"/>
      <path class="st3" d="M500.29,539.47h0c0,3.24,2.62,5.86,5.86,5.86h11.96c9.8,0,17.75,7.95,17.75,17.75h0c0,9.8-7.95,17.75-17.75,17.75h-29.71c0-6.57,5.32-11.89,11.89-11.89h17.82c3.24,0,5.86-2.62,5.86-5.86h0c0-3.24-2.62-5.86-5.86-5.86h-11.96c-9.8,0-17.75-7.95-17.75-17.75h0c0-9.81,7.95-17.76,17.75-17.76h29.71c0,6.57-5.33,11.9-11.9,11.9h-17.81c-3.24,0-5.86,2.62-5.86,5.86Z"/>
      <path class="st0" d="M149.23,528.62c0,3.23-1.91,6.09-4.95,7.52-1.72.67-2.95.38-3.81-.39-2.19-2-3.81-2.85-6.18-2.85-3.2,0-6.9,3.18-9.83,9.03-.75,1.5-1.12,3.17-1.12,4.86v22.22c0,6.56-5.33,11.89-11.89,11.89v-47.53c0-6.56,5.32-11.89,11.89-11.89v15.51s7.6-15.5,17.33-15.5c5.14,0,8.57,3.71,8.57,7.14Z"/>
      <g>
        <path class="st0" d="M303.11,545.1v35.55c-3.28,0-6.25-1.33-8.41-3.49-2.15-2.15-3.49-5.12-3.49-8.41v-23.68c0-6.57-5.32-11.89-11.89-11.89-3.28,0-6.25,1.33-8.41,3.48-2.15,2.15-3.48,5.12-3.48,8.41v23.69c0,6.57-5.32,11.89-11.89,11.89v-35.55c0-7.76,3.72-14.66,9.48-19,3.98-3,8.93-4.78,14.3-4.78h0c13.13,0,23.78,10.65,23.78,23.78Z"/>
        <path class="st0" d="M265.03,526.1c-5.76,4.34-9.48,11.24-9.48,19v-23.72c3.87,0,7.31,1.85,9.48,4.72Z"/>
      </g>
      <g>
        <path class="st3" d="M433.23,545.1v35.55c-3.28,0-6.25-1.33-8.41-3.49-2.15-2.15-3.49-5.12-3.49-8.41v-23.68c0-6.57-5.32-11.89-11.89-11.89-3.28,0-6.25,1.33-8.41,3.48-2.15,2.15-3.48,5.12-3.48,8.41v23.69c0,6.57-5.32,11.89-11.89,11.89v-35.55c0-7.76,3.72-14.66,9.48-19,3.98-3,8.93-4.78,14.3-4.78h0c13.13,0,23.78,10.65,23.78,23.78Z"/>
        <path class="st3" d="M395.15,526.1c-5.76,4.34-9.48,11.24-9.48,19v-23.72c3.87,0,7.31,1.85,9.48,4.72Z"/>
      </g>
      <path class="st0" d="M223.9,545.3h0c-6.31,0-11.43,5.12-11.43,11.43v.44h11.56c13.05,0,23.63-10.58,23.63-23.63v-11.97h-23.76c-13.14,0-23.79,10.65-23.79,23.79v11.87c0,13.07,10.6,23.67,23.66,23.67h23.89c0-3.28-1.33-6.24-3.47-8.39-2.15-2.15-5.11-3.47-8.39-3.47h-11.93c-6.56,0-11.87-5.31-11.87-11.87v-11.86c0-3.28,1.33-6.25,3.47-8.39,2.15-2.15,5.12-3.48,8.4-3.48h11.91c0,3.28-1.33,6.25-3.47,8.39-2.15,2.15-5.12,3.48-8.4,3.48Z"/>
      <path class="st3" d="M460.88,545.3h0c-6.31,0-11.43,5.12-11.43,11.43v.44h11.56c13.05,0,23.63-10.58,23.63-23.63v-11.97h-23.76c-13.14,0-23.79,10.65-23.79,23.79v11.87c0,13.07,10.6,23.67,23.66,23.67h23.89c0-3.28-1.33-6.24-3.47-8.39-2.15-2.15-5.11-3.47-8.39-3.47h-11.93c-6.56,0-11.87-5.31-11.87-11.87v-11.86c0-3.28,1.33-6.25,3.47-8.39,2.15-2.15,5.12-3.48,8.4-3.48h11.91c0,3.28-1.33,6.25-3.47,8.39-2.15,2.15-5.12,3.48-8.4,3.48Z"/>
      <path class="st0" d="M172.73,545.3h0c-6.31,0-11.43,5.12-11.43,11.43v.44h11.56c13.05,0,23.63-10.58,23.63-23.63v-11.97h-23.76c-13.14,0-23.79,10.65-23.79,23.79v11.87c0,13.07,10.6,23.67,23.66,23.67h23.89c0-3.28-1.33-6.24-3.47-8.39-2.15-2.15-5.11-3.47-8.39-3.47h-11.93c-6.56,0-11.87-5.31-11.87-11.87v-11.86c0-3.28,1.33-6.25,3.47-8.39,2.15-2.15,5.12-3.48,8.4-3.48h11.91c0,3.28-1.33,6.25-3.47,8.39-2.15,2.15-5.12,3.48-8.4,3.48Z"/>
      <path class="st2" d="M113.45,492.29h418.26c3.44,0,6.22,2.79,6.22,6.22v3.55H119.68c-3.44,0-6.22-2.79-6.22-6.22v-3.55h0Z"/>
    </g>
    <g>
      <path class="st3" d="M67.42,439.01c-1.04,5.48-3.66,9.93-7.86,13.41-4.2,3.47-9.02,5.18-14.38,5.18l1.89-3.17c2.01-3.6,2.99-7.31,2.99-11.27v-52.1c0-2.86.98-5.3,2.92-7.31,2.01-1.95,4.39-2.92,7.19-2.92h7.56v43.57l-.3,14.62ZM65.9,364.73c0,4.02-3.23,7.25-7.25,7.25s-7.25-3.23-7.25-7.25,3.23-7.31,7.25-7.31,7.25,3.29,7.25,7.31Z"/>
      <path class="st3" d="M102.13,424.38v-33.39c0-2.86.97-5.3,2.92-7.25,1.95-1.95,4.33-2.92,7.13-2.92h7.56v51.19c0,3.87-3.13,7-7,7h-39.36c-3.29,0-5.95-2.67-5.95-5.95v-8.67h34.7ZM105.72,359.55c-1.4,1.4-2.13,3.11-2.13,5.12s.73,3.66,2.13,5.18c1.4,1.4,3.11,2.13,5.12,2.13s3.78-.73,5.18-2.19c1.4-1.4,2.13-3.11,2.13-5.12s-.73-3.72-2.13-5.12c-1.4-1.4-3.17-2.13-5.18-2.13s-3.72.73-5.12,2.13Z"/>
      <path class="st3" d="M153.48,424.38c5.06,0,9.17-4.1,9.17-9.17v-24.23c0-2.86.98-5.3,2.92-7.25,1.95-1.95,4.33-2.92,7.13-2.92h7.56v35.31c0,12.64-10.25,22.88-22.88,22.88h-29.45c-4.85,0-8.79-3.93-8.79-8.79v-5.84h34.35ZM149.72,447.29c-1.4,1.4-2.13,3.11-2.13,5.12,0,4.02,3.29,7.31,7.31,7.31,2.01,0,3.72-.73,5.12-2.13s2.13-3.17,2.13-5.18-.73-3.72-2.13-5.12c-1.4-1.4-3.11-2.13-5.12-2.13s-3.78.73-5.18,2.13ZM167.58,447.29c-1.4,1.4-2.13,3.11-2.13,5.12s.73,3.78,2.13,5.18c1.4,1.4,3.11,2.13,5.12,2.13,4.02,0,7.31-3.29,7.31-7.31,0-2.01-.73-3.72-2.13-5.12s-3.17-2.13-5.18-2.13-3.72.73-5.12,2.13Z"/>
      <path class="st3" d="M212.43,424.38c8.28,0,14.99-6.71,14.99-14.99v-47.77c0-2.8.91-5.18,2.86-7.13,1.89-1.89,4.14-2.86,6.89-2.86h7.31l-.04,58.26c-.01,16.06-13.02,29.08-29.08,29.1l-17.55.02h0c0-8.08,6.55-14.62,14.62-14.62h0ZM197.81,425.01v-63.88c0-2.68.91-4.94,2.74-6.76,1.77-1.83,3.96-2.74,6.64-2.74h7.07v56.93c0,9.09-7.37,16.45-16.45,16.45h0Z"/>
      <path class="st0" d="M357.75,431.48c0,11.19-9.07,20.26-20.26,20.26h-42.66c-4.08,0-7.8-1.04-11.27-3.05-3.35-2.01-6.09-4.69-8.1-8.1-2.01-3.35-3.05-7.13-3.05-11.27v-26.57c0-8.78,7.12-15.9,15.9-15.9h11.15v6.52c0,2.99-.98,5.42-2.99,7.43-1.77,1.77-3.9,2.68-6.4,2.86v25.65c0,2.13.79,3.96,2.32,5.55,1.52,1.52,3.35,2.25,5.48,2.25h36.6c3.09,0,5.6-2.51,5.6-5.6v-40.53c0-2.86.98-5.3,2.93-7.25,1.95-1.95,4.33-2.92,7.19-2.92h7.56v50.67ZM312.34,372.36c-1.4,1.4-2.13,3.17-2.13,5.18s.73,3.72,2.13,5.12,3.11,2.13,5.12,2.13,3.72-.73,5.12-2.13,2.13-3.11,2.13-5.12-.73-3.78-2.13-5.18c-1.4-1.4-3.11-2.13-5.12-2.13s-3.72.73-5.12,2.13Z"/>
      <path class="st0" d="M387.87,424.38c4.18,0,7.57-3.39,7.57-7.57v-25.83c0-2.86.98-5.3,2.92-7.25,1.95-1.95,4.33-2.92,7.13-2.92h7.56v36.91c0,11.76-9.53,21.28-21.28,21.28h-28c-3.36,0-6.09-2.72-6.09-6.09v-8.54h30.2ZM382.52,447.29c-1.4,1.4-2.13,3.11-2.13,5.12,0,4.02,3.29,7.31,7.31,7.31,2.01,0,3.72-.73,5.12-2.13s2.13-3.17,2.13-5.18-.73-3.72-2.13-5.12c-1.4-1.4-3.11-2.13-5.12-2.13s-3.78.73-5.18,2.13ZM400.37,447.29c-1.4,1.4-2.13,3.11-2.13,5.12s.73,3.78,2.13,5.18c1.4,1.4,3.11,2.13,5.12,2.13,4.02,0,7.31-3.29,7.31-7.31,0-2.01-.73-3.72-2.13-5.12s-3.17-2.13-5.18-2.13-3.72.73-5.12,2.13Z"/>
      <path class="st0" d="M448.58,424.38v14.62h-1.34c-1.04,5.48-3.66,9.93-7.86,13.41-4.2,3.47-9.02,5.18-14.38,5.18l1.89-3.17c2.01-3.6,2.99-7.31,2.99-11.27v-52.1c0-2.86.98-5.3,2.92-7.31,2.01-1.95,4.39-2.92,7.19-2.92h7.56v43.57h1.04Z"/>
      <path class="st0" d="M447.85,424.38h60.94c11.71,0,21.21-9.49,21.21-21.21h0c0-2.25-.79-4.08-2.38-5.61-1.64-1.46-3.47-2.19-5.48-2.19h-35.24c-.18,2.5-1.16,4.63-2.92,6.4-1.95,1.95-4.45,2.93-7.43,2.93h-6.46v-14.94c0-4.98,4.03-9.01,9.01-9.01h46.16c4.14,0,7.92,1.04,11.27,3.05,3.41,2.01,6.09,4.69,8.1,8.1,2.01,3.35,3.05,7.13,3.05,11.27h0c0,19.79-16.04,35.83-35.83,35.83h-63.99v-14.62ZM505.12,447.29c-1.4,1.4-2.13,3.11-2.13,5.12s.73,3.66,2.13,5.18c1.4,1.4,3.11,2.13,5.12,2.13s3.78-.73,5.18-2.19c1.4-1.4,2.13-3.11,2.13-5.12s-.73-3.72-2.13-5.12c-1.4-1.4-3.17-2.13-5.18-2.13s-3.72.73-5.12,2.13Z"/>
    </g>
  </g>
  <g>
    <path class="st0" d="M322.3,281.48h-22.11c-.45-.82-.91-1.66-1.36-2.48-3.88-6.96-8.25-13.62-13.12-19.93-4.07-5.3-8.49-10.36-13.23-15.17-.28-.28-.56-.56-.84-.84-8.55-8.55-17.91-16.05-27.97-22.45-7.56-4.81-15.54-8.99-23.85-12.5-6.94-2.93-14.03-5.37-21.25-7.3-6.34-1.68-12.73-3-19.24-3.92-.71-.09-1.44-.19-2.15-.28-6.03-.75-12.15-1.19-18.29-1.25-.5-.04-1.01-.04-1.51-.04v-19.8c6.68.04,13.3.43,19.8,1.16h.06c26.05,2.97,50.42,11.4,71.97,24.13,9.76,5.75,18.92,12.41,27.41,19.8,3.12,2.74,6.16,5.58,9.09,8.51,4.68,4.7,9.09,9.61,13.25,14.78,4.74,5.9,9.11,12.11,13.1,18.57,3.36,5.45,6.46,11.08,9.22,16.89.28.54.54,1.1.8,1.66.06.15.15.3.22.45Z"/>
    <path class="st3" d="M274.25,281.48h-24.52c-2.48-2.97-5.09-5.86-7.87-8.64-22.6-22.6-52.58-35.17-84.49-35.4v-19.8c48.91.34,91.92,25.66,116.88,63.85Z"/>
    <path class="st1" d="M220.25,281.48h-62.88v-23.08c23.9.24,45.79,8.86,62.88,23.08Z"/>
    <path class="st2" d="M416.1,175.51v19.8h-1.62c-6.18.02-12.28.37-18.34,1.08-.69.09-1.36.15-2.05.26-7.18.9-14.26,2.28-21.2,4.16-7.22,1.94-14.33,4.37-21.27,7.3-8.34,3.51-16.29,7.69-23.85,12.5-10.06,6.4-19.44,13.9-27.99,22.45-.28.28-.56.56-.82.84-4.16-5.17-8.58-10.08-13.25-14.78,2.93-2.93,5.99-5.77,9.11-8.51,8.47-7.41,17.63-14.03,27.39-19.8,22.09-13.04,47.13-21.59,73.91-24.33h.02c6.23-.65,12.54-.97,18.94-.97h1.01Z"/>
    <path class="st3" d="M416.09,217.63v19.8c-.34,0-.67,0-1,0-30.82,0-59.89,11.46-82.33,32.35-2.97-6.11-6.25-12.04-9.84-17.77,24.69-21.42,56.92-34.38,92.17-34.38.34,0,.67,0,1,0Z"/>
    <path class="st1" d="M416.1,258.4v23.08h-64.86c17.28-14.42,39.56-23.08,63.85-23.08h1.01Z"/>
    <path class="st2" d="M415.99,175.51h-.91c-6.4,0-12.71.32-18.94.97h-.02c.02-.32.02-.65.02-.97,0-60.36-49.11-109.47-109.47-109.47s-109.47,49.11-109.47,109.47c0,.39,0,.78.02,1.16h-.06c-6.51-.73-13.12-1.12-19.8-1.16,0-71.43,57.88-129.33,129.31-129.33s129.31,57.9,129.31,129.33Z"/>
    <g>
      <path class="st2" d="M298.06,120.13c0,11.35-4.59,21.63-11.99,29.08-7.42-7.45-12-17.73-12-29.08s4.59-21.63,12-29.09c7.41,7.46,11.99,17.74,11.99,29.09Z"/>
      <g>
        <path class="st3" d="M291.71,180.11c-.01-.07-.02-.14-.02-.22-.8-6.75.35-13.34,3.04-19.15,1.38-3,3.19-5.79,5.34-8.3,5.08-5.92,12.13-10.22,20.39-11.79,2.08-.39,4.14-.58,6.18-.61-11.91,2.93-21.06,11.67-24.96,22.58,4,.68,8.2.65,12.42-.15,11.75-2.22,21.06-10,25.75-20.09.43-.96.85-1.93,1.2-2.95.52-1.43.94-2.9,1.28-4.41.45-2.13.73-4.33.79-6.54-1.7.6-3.48,1.09-5.33,1.44-3.04.58-6.05.74-9.01.54-.66-.03-1.31-.09-1.93-.18-2.96-.2-6.01-.03-9.06.55-5.53,1.05-10.53,3.33-14.74,6.49-6.83,5.13-11.64,12.59-13.49,20.96-.98,4.56-1.1,9.37-.19,14.24.49,2.58,1.27,5.07,2.27,7.41.02.06.05.12.08.18Z"/>
        <path class="st2" d="M285.15,209.7c.03-.1.04-.21.06-.32,2.15-9.94,1.36-19.9-1.82-28.93-1.63-4.66-3.93-9.07-6.78-13.1-6.72-9.53-16.6-16.93-28.68-20.43-3.05-.87-6.09-1.44-9.12-1.78,17.32,6.05,29.7,20.34,33.96,37.13-6.06.44-12.3-.19-18.47-1.98-17.18-4.97-29.94-17.85-35.48-33.54-.51-1.48-.99-3-1.36-4.56-.57-2.21-.99-4.45-1.28-6.74-.37-3.24-.48-6.55-.25-9.85,2.45,1.13,5.03,2.11,7.73,2.89,4.44,1.29,8.9,1.96,13.33,2.07.99.04,1.96.05,2.9.01,4.44.12,8.95.81,13.4,2.09,8.09,2.34,15.2,6.44,21.03,11.74,9.45,8.6,15.55,20.38,17.11,33.11.82,6.92.31,14.1-1.74,21.22-1.1,3.77-2.6,7.36-4.42,10.71-.04.09-.09.18-.14.26Z"/>
      </g>
    </g>
  </g>
</svg>